<svg width="734" height="668" viewBox="0 0 734 668" fill="none" xmlns="http://www.w3.org/2000/svg">
<path d="M210.327 100.667H700.333L633.667 334H246.225M667 467.333H267L200.333 34H100.333M100.333 200.667H33.6666M133.667 300.667H33.6666M167 400.667H33.6666M300.333 600.667C300.333 619.077 285.409 634 267 634C248.591 634 233.667 619.077 233.667 600.667C233.667 582.257 248.591 567.333 267 567.333C285.409 567.333 300.333 582.257 300.333 600.667ZM667 600.667C667 619.077 652.077 634 633.667 634C615.257 634 600.333 619.077 600.333 600.667C600.333 582.257 615.257 567.333 633.667 567.333C652.077 567.333 667 582.257 667 600.667Z" stroke="white" stroke-width="66.6667" stroke-linecap="round" stroke-linejoin="round"/>
</svg>
