<svg width="41" height="45" viewBox="0 0 41 45" fill="none" xmlns="http://www.w3.org/2000/svg">
<path d="M40.0448 36.2674C35.2072 34.1381 35.0232 24.9983 35.0197 24.7676V18.6359C35.0197 15.5547 34.0111 12.6989 32.2989 10.3656C29.4299 6.45588 25.9581 0.669862 21.1487 0.0480223C20.9037 0.0163488 20.6539 0 20.4002 0C20.1464 0 19.8965 0.0163592 19.6514 0.0480523C14.8423 0.670069 11.3706 6.45574 8.50171 10.3652C6.7894 12.6986 5.78077 15.5545 5.78077 18.6358V24.7675C5.77735 24.9981 5.59318 34.1379 0.755477 36.2673C0.204384 36.5099 -0.0984982 37.0946 0.0289174 37.6708C0.156184 38.2471 0.679013 38.6587 1.28381 38.6587H9.39795C11.8036 38.6587 13.7655 40.5624 15.4534 42.2766C16.7819 43.6256 18.5387 44.3686 20.4 44.3686C22.2614 44.3686 24.0182 43.6256 25.3465 42.2766C27.0344 40.5625 28.9963 38.6587 31.402 38.6587H39.5161C40.1209 38.6587 40.6436 38.2472 40.7711 37.6708C40.8986 37.0946 40.5959 36.51 40.0448 36.2674ZM32.4384 31.8889C33.1759 31.8889 33.8188 32.3523 34.103 33.0329C34.6614 34.3697 33.755 36.1566 32.3062 36.1566H8.49386C7.04512 36.1566 6.13869 34.3699 6.69701 33.033C6.98125 32.3525 7.62413 31.8889 8.36169 31.8889H32.4384ZM20.4002 2.50227C20.7293 2.50227 21.0465 2.5526 21.3441 2.64578C22.6397 3.05129 21.7577 4.38664 20.4002 4.38664C19.0428 4.38664 18.1608 3.05129 19.4563 2.64578C19.7539 2.5526 20.0711 2.50227 20.4002 2.50227ZM8.34805 24.7752V18.6357C8.34805 12.1585 13.7546 6.88891 20.4002 6.88891C27.0458 6.88891 32.4523 12.1585 32.4523 18.6357V24.7854C32.474 27.1767 30.7476 29.3865 28.3561 29.3865H12.4541C10.0574 29.3865 8.32862 27.1719 8.34805 24.7752ZM20.4002 41.8665C19.9044 41.8665 19.4247 41.7784 18.9756 41.617C16.997 40.9061 18.2977 38.6588 20.4001 38.6588C22.5025 38.6588 23.8033 40.9062 21.8247 41.6171C21.3757 41.7784 20.8959 41.8665 20.4002 41.8665Z" fill="white"/>
<path d="M20.4002 8.64429C14.8773 8.64429 10.3842 13.0235 10.3842 18.4064C10.3842 19.0974 10.9589 19.6576 11.6678 19.6576C12.3768 19.6576 12.9515 19.0974 12.9515 18.4064C12.9515 14.4033 16.293 11.1466 20.4002 11.1466C21.1092 11.1466 21.6839 10.5864 21.6839 9.89539C21.6838 9.20433 21.1091 8.64429 20.4002 8.64429Z" fill="white"/>
</svg>
